<svg width="99" height="37" viewBox="0 0 99 37" fill="none" xmlns="http://www.w3.org/2000/svg">
<path d="M19.6475 6.85098L27.9097 2.44466V34.5544H19.6475V6.85098ZM28.7368 2.44565V34.5554H37V6.85098L28.7368 2.44565ZM0 34.5544H12.9631V11.7423L0 18.0507V34.5544ZM13.7515 34.5544H18.8213V14.4458L13.7515 11.7423V34.5544V34.5544Z" fill="black"/>
<path d="M40.9902 28V19.4688H43.7793C44.7051 19.4688 45.4004 19.6602 45.8652 20.043C46.334 20.4258 46.5684 20.9922 46.5684 21.7422C46.5684 22.1406 46.4551 22.4941 46.2285 22.8027C46.002 23.1074 45.6934 23.3438 45.3027 23.5117C45.7637 23.6406 46.127 23.8867 46.3926 24.25C46.6621 24.6094 46.7969 25.0391 46.7969 25.5391C46.7969 26.3047 46.5488 26.9062 46.0527 27.3438C45.5566 27.7812 44.8555 28 43.9492 28H40.9902ZM42.1152 24.0098V27.0801H43.9727C44.4961 27.0801 44.9082 26.9453 45.209 26.6758C45.5137 26.4023 45.666 26.0273 45.666 25.5508C45.666 24.5234 45.1074 24.0098 43.9902 24.0098H42.1152ZM42.1152 23.1074H43.8145C44.3066 23.1074 44.6992 22.9844 44.9922 22.7383C45.2891 22.4922 45.4375 22.1582 45.4375 21.7363C45.4375 21.2676 45.3008 20.9277 45.0273 20.7168C44.7539 20.502 44.3379 20.3945 43.7793 20.3945H42.1152V23.1074ZM54.4727 19.4688V25.2695C54.4688 26.0742 54.2148 26.7324 53.7109 27.2441C53.2109 27.7559 52.5312 28.043 51.6719 28.1055L51.373 28.1172C50.4395 28.1172 49.6953 27.8652 49.1406 27.3613C48.5859 26.8574 48.3047 26.1641 48.2969 25.2812V19.4688H49.4102V25.2461C49.4102 25.8633 49.5801 26.3438 49.9199 26.6875C50.2598 27.0273 50.7441 27.1973 51.373 27.1973C52.0098 27.1973 52.4961 27.0273 52.832 26.6875C53.1719 26.3477 53.3418 25.8691 53.3418 25.252V19.4688H54.4727ZM57.4551 28H56.3301V19.4688H57.4551V28ZM60.6484 27.0801H64.6914V28H59.5176V19.4688H60.6484V27.0801ZM65.9746 28V19.4688H68.3828C69.125 19.4688 69.7812 19.6328 70.3516 19.9609C70.9219 20.2891 71.3613 20.7559 71.6699 21.3613C71.9824 21.9668 72.1406 22.6621 72.1445 23.4473V23.9922C72.1445 24.7969 71.9883 25.502 71.6758 26.1074C71.3672 26.7129 70.9238 27.1777 70.3457 27.502C69.7715 27.8262 69.1016 27.9922 68.3359 28H65.9746ZM67.0996 20.3945V27.0801H68.2832C69.1504 27.0801 69.8242 26.8105 70.3047 26.2715C70.7891 25.7324 71.0312 24.9648 71.0312 23.9688V23.4707C71.0312 22.502 70.8027 21.75 70.3457 21.2148C69.8926 20.6758 69.248 20.4023 68.4121 20.3945H67.0996ZM75.0566 28H73.9316V19.4688H75.0566V28ZM83.6758 28H82.5449L78.25 21.4258V28H77.1191V19.4688H78.25L82.5566 26.0723V19.4688H83.6758V28ZM91.9727 26.8809C91.6836 27.2949 91.2793 27.6055 90.7598 27.8125C90.2441 28.0156 89.6426 28.1172 88.9551 28.1172C88.2598 28.1172 87.6426 27.9551 87.1035 27.6309C86.5645 27.3027 86.1465 26.8379 85.8496 26.2363C85.5566 25.6348 85.4062 24.9375 85.3984 24.1445V23.4004C85.3984 22.1152 85.6973 21.1191 86.2949 20.4121C86.8965 19.7051 87.7402 19.3516 88.8262 19.3516C89.7168 19.3516 90.4336 19.5801 90.9766 20.0371C91.5195 20.4902 91.8516 21.1348 91.9727 21.9707H90.8477C90.6367 20.8418 89.9648 20.2773 88.832 20.2773C88.0781 20.2773 87.5059 20.543 87.1152 21.0742C86.7285 21.6016 86.5332 22.3672 86.5293 23.3711V24.0684C86.5293 25.0254 86.748 25.7871 87.1855 26.3535C87.623 26.916 88.2148 27.1973 88.9609 27.1973C89.3828 27.1973 89.752 27.1504 90.0684 27.0566C90.3848 26.9629 90.6465 26.8047 90.8535 26.582V24.666H88.8789V23.752H91.9727V26.8809ZM41.4473 34.2061L42.1855 31.8301H42.7656L41.4912 35.4893C41.2939 36.0166 40.9805 36.2803 40.5508 36.2803L40.4482 36.2715L40.2461 36.2334V35.7939L40.3926 35.8057C40.5762 35.8057 40.7188 35.7686 40.8203 35.6943C40.9238 35.6201 41.0088 35.4844 41.0752 35.2871L41.1953 34.9648L40.0645 31.8301H40.6562L41.4473 34.2061ZM43.0615 33.3857C43.0615 33.0752 43.1221 32.7959 43.2432 32.5479C43.3662 32.2998 43.5361 32.1084 43.7529 31.9736C43.9717 31.8389 44.2207 31.7715 44.5 31.7715C44.9316 31.7715 45.2803 31.9209 45.5459 32.2197C45.8135 32.5186 45.9473 32.916 45.9473 33.4121V33.4502C45.9473 33.7588 45.8877 34.0361 45.7686 34.2822C45.6514 34.5264 45.4824 34.7168 45.2617 34.8535C45.043 34.9902 44.791 35.0586 44.5059 35.0586C44.0762 35.0586 43.7275 34.9092 43.46 34.6104C43.1943 34.3115 43.0615 33.916 43.0615 33.4238V33.3857ZM43.6064 33.4502C43.6064 33.8018 43.6875 34.084 43.8496 34.2969C44.0137 34.5098 44.2324 34.6162 44.5059 34.6162C44.7812 34.6162 45 34.5088 45.1621 34.2939C45.3242 34.0771 45.4053 33.7744 45.4053 33.3857C45.4053 33.0381 45.3223 32.7568 45.1562 32.542C44.9922 32.3252 44.7734 32.2168 44.5 32.2168C44.2324 32.2168 44.0166 32.3232 43.8525 32.5361C43.6885 32.749 43.6064 33.0537 43.6064 33.4502ZM48.584 34.6865C48.373 34.9346 48.0635 35.0586 47.6553 35.0586C47.3174 35.0586 47.0596 34.9609 46.8818 34.7656C46.7061 34.5684 46.6172 34.2773 46.6152 33.8926V31.8301H47.1572V33.8779C47.1572 34.3584 47.3525 34.5986 47.7432 34.5986C48.1572 34.5986 48.4326 34.4443 48.5693 34.1357V31.8301H49.1113V35H48.5957L48.584 34.6865ZM51.4697 32.3164C51.3877 32.3027 51.2988 32.2959 51.2031 32.2959C50.8477 32.2959 50.6064 32.4473 50.4795 32.75V35H49.9375V31.8301H50.4648L50.4736 32.1963C50.6514 31.9131 50.9033 31.7715 51.2295 31.7715C51.335 31.7715 51.415 31.7852 51.4697 31.8125V32.3164ZM53.7256 35V32.249H53.2246V31.8301H53.7256V31.5049C53.7256 31.165 53.8164 30.9023 53.998 30.7168C54.1797 30.5312 54.4365 30.4385 54.7686 30.4385C54.8936 30.4385 55.0176 30.4551 55.1406 30.4883L55.1113 30.9277C55.0195 30.9102 54.9219 30.9014 54.8184 30.9014C54.6426 30.9014 54.5068 30.9531 54.4111 31.0566C54.3154 31.1582 54.2676 31.3047 54.2676 31.4961V31.8301H54.9443V32.249H54.2676V35H53.7256ZM57.502 34.6865C57.291 34.9346 56.9814 35.0586 56.5732 35.0586C56.2354 35.0586 55.9775 34.9609 55.7998 34.7656C55.624 34.5684 55.5352 34.2773 55.5332 33.8926V31.8301H56.0752V33.8779C56.0752 34.3584 56.2705 34.5986 56.6611 34.5986C57.0752 34.5986 57.3506 34.4443 57.4873 34.1357V31.8301H58.0293V35H57.5137L57.502 34.6865ZM59.5908 31.0625V31.8301H60.1826V32.249H59.5908V34.2148C59.5908 34.3418 59.6172 34.4375 59.6699 34.502C59.7227 34.5645 59.8125 34.5957 59.9395 34.5957C60.002 34.5957 60.0879 34.584 60.1973 34.5605V35C60.0547 35.0391 59.916 35.0586 59.7812 35.0586C59.5391 35.0586 59.3564 34.9854 59.2334 34.8389C59.1104 34.6924 59.0488 34.4844 59.0488 34.2148V32.249H58.4717V31.8301H59.0488V31.0625H59.5908ZM62.7754 34.6865C62.5645 34.9346 62.2549 35.0586 61.8467 35.0586C61.5088 35.0586 61.251 34.9609 61.0732 34.7656C60.8975 34.5684 60.8086 34.2773 60.8066 33.8926V31.8301H61.3486V33.8779C61.3486 34.3584 61.5439 34.5986 61.9346 34.5986C62.3486 34.5986 62.624 34.4443 62.7607 34.1357V31.8301H63.3027V35H62.7871L62.7754 34.6865ZM65.6611 32.3164C65.5791 32.3027 65.4902 32.2959 65.3945 32.2959C65.0391 32.2959 64.7979 32.4473 64.6709 32.75V35H64.1289V31.8301H64.6562L64.665 32.1963C64.8428 31.9131 65.0947 31.7715 65.4209 31.7715C65.5264 31.7715 65.6064 31.7852 65.6611 31.8125V32.3164ZM67.4189 35.0586C66.9893 35.0586 66.6396 34.918 66.3701 34.6367C66.1006 34.3535 65.9658 33.9756 65.9658 33.5029V33.4033C65.9658 33.0889 66.0254 32.8086 66.1445 32.5625C66.2656 32.3145 66.4336 32.1211 66.6484 31.9824C66.8652 31.8418 67.0996 31.7715 67.3516 31.7715C67.7637 31.7715 68.084 31.9072 68.3125 32.1787C68.541 32.4502 68.6553 32.8389 68.6553 33.3447V33.5703H66.5078C66.5156 33.8828 66.6064 34.1357 66.7803 34.3291C66.9561 34.5205 67.1787 34.6162 67.4482 34.6162C67.6396 34.6162 67.8018 34.5771 67.9346 34.499C68.0674 34.4209 68.1836 34.3174 68.2832 34.1885L68.6143 34.4463C68.3486 34.8545 67.9502 35.0586 67.4189 35.0586ZM67.3516 32.2168C67.1328 32.2168 66.9492 32.2969 66.8008 32.457C66.6523 32.6152 66.5605 32.8379 66.5254 33.125H68.1133V33.084C68.0977 32.8086 68.0234 32.5957 67.8906 32.4453C67.7578 32.293 67.5781 32.2168 67.3516 32.2168Z" fill="black"/>
</svg>
